<?xml version="1.0" encoding="UTF-8"?><svg xmlns="http://www.w3.org/2000/svg" width="2461" height="1000" viewBox="0 0 2460.94674556213 1000"><svg x="0" y="0" width="1000" height="1000" viewBox="0 0 2048 2048"><defs><linearGradient id="ig" gradientUnits="userSpaceOnUse" x1="400" y1="420" x2="1600" y2="1680"><stop offset="0%" stop-color="#9c5698"/><stop offset="20%" stop-color="#9c5698"/><stop offset="35%" stop-color="#d15659"/><stop offset="50%" stop-color="#e05747"/><stop offset="65%" stop-color="#ff7c10"/><stop offset="90%" stop-color="#ffc800"/><stop offset="100%" stop-color="#ffc800"/></linearGradient></defs><path fill="url(#ig)" d="M1002.64 420.432C1010.39 419.464 1031.72 419.81 1039.84 420.124C1110.9 422.944 1179.92 444.646 1239.81 482.998C1330.42 541.324 1393.7 633.707 1415.36 739.271C1438.27 849.509 1413.57 953.495 1352.49 1046.55C1370.25 1063.1 1389.73 1083.49 1407.07 1100.83L1507.6 1201.34L1564.47 1258.17C1604.84 1298.5 1642.91 1328.61 1590.86 1381.84C1537.34 1436.58 1509.71 1406.42 1467.21 1363.84L1417.39 1313.89L1251.26 1147.66C1219.48 1169.64 1184.69 1186.91 1147.96 1198.94C1042.02 1233.64 935.318 1221.88 836.704 1171.94C821.784 1164.15 810.53 1157.08 796.737 1147.66C770.286 1175.27 740.585 1203.95 713.394 1231.15C728.309 1245.96 743.575 1260.91 758.382 1275.96C775.604 1293.46 786.486 1307 767.674 1328.59C745.931 1353.54 729.649 1350.33 708.017 1327.47C693.472 1312.74 677.482 1296.85 662.638 1281.91L643.882 1300.66L678.595 1335.2C697.808 1354.35 721.856 1372.39 697.56 1398.79C674.288 1424.09 660.317 1419.04 637.773 1396.26C623.053 1381.39 607.823 1366.21 593.126 1351.42C549.144 1395.59 515.779 1442.89 457.763 1382.59C406.724 1329.54 439.922 1301.85 480.759 1260.97L533.549 1208.15C586.707 1154.98 641.516 1098.55 695.508 1046.55C654.879 985.546 630.238 920.141 625.436 846.497C618.223 740.64 653.441 636.266 723.313 556.418C796.096 473.492 893.019 427.434 1002.64 420.432ZM1034 1011C1140 1008 1204 974 1214 861C1227 711 1183 621 1018 627C1017 627 1016 627 1015 627C870 631 829 695 832 833C835 972 904 1013 1034 1011Z"/><path fill="url(#ig)" d="M1014.97 1382.45C1017.89 1382.41 1020.81 1382.39 1023.73 1382.38C1185.12 1382.2 1341.07 1459.59 1461.33 1565.49C1500.83 1600.28 1479.91 1639.72 1448.28 1670.17C1418.31 1699.01 1389.64 1692 1360.07 1667.11C1267.23 1590.35 1157.96 1529.51 1034.65 1525.94C938.955 1524.3 855.652 1553.88 774.819 1604.11C756.708 1615.43 739.051 1627.47 721.892 1640.19C683.945 1668.14 647.874 1715.12 600.798 1671.14C557.774 1630.94 549.656 1591.89 600.28 1553.31C618.434 1539.48 636.896 1523.78 656.088 1510.91C764.881 1433.54 880.77 1386.83 1014.97 1382.45Z"/></svg><svg x="1023.0769230769231" y="269.2307692307692" width="1437.8698224852071" height="461.53846153846155" viewBox="180 620 2430 780"><defs><linearGradient id="tg" gradientUnits="userSpaceOnUse" x1="180" y1="0" x2="2610" y2="2000"><stop offset="0%" stop-color="#9c5698"/><stop offset="25%" stop-color="#9c5698"/><stop offset="40%" stop-color="#d15659"/><stop offset="55%" stop-color="#e05747"/><stop offset="70%" stop-color="#ff7c10"/><stop offset="90%" stop-color="#ffc800"/><stop offset="100%" stop-color="#ffc800"/></linearGradient></defs><path fill="url(#tg)" d="M208.3 670.014C220.645 629.654 286.78 633.206 318.929 641.055C332.397 644.343 347.614 656.702 351.678 670.159C359.551 694.525 359.669 737.646 351.252 761.902C336.412 806.713 217.025 803.291 209.435 759.855C202.877 735.201 200.302 694.252 208.3 670.014Z"/><path fill="url(#tg)" d="M211.326 895.532C223.915 878.6 236.015 872.87 257.106 869.996C288.47 865.724 340.811 866.524 351.274 904.797C357.275 940.342 355.754 973.712 355.88 1009.77L355.767 1155.83L355.613 1262.01C355.429 1290.28 359.625 1338.85 338.932 1359.51C318.102 1380.62 265.255 1379.68 239.546 1370.59C238.804 1369.81 234.144 1367.77 232.925 1367.14C224.797 1362.93 216.32 1356.5 212.263 1348.11C207.49 1338.24 205.31 1316.77 204.942 1306.08C204.162 1283.38 204.49 1260.08 204.49 1237.4L204.514 1115.3L204.179 994.493C204.238 961.585 202.221 927.337 211.326 895.532Z"/><path fill="url(#tg)" d="M458.657 901.495C467.047 879.904 488.833 873.185 510.189 872.861C545.255 872.329 580.42 872.79 615.503 872.82L826.103 872.966L1062.96 872.774C1103.77 872.736 1145.17 872.532 1186.02 872.883C1193.24 872.945 1209.19 874.865 1215.87 877.801C1255.25 895.134 1265.69 952.514 1236.97 983.655C1219.97 1002.08 1202.26 1019.57 1184.76 1037.41L1041.41 1185.05C1029.35 1197.69 995.658 1230.88 986.946 1242.45C1064.92 1244.59 1143.95 1240.18 1221.83 1244C1262.42 1246 1267.37 1285.83 1266.35 1317.98C1264.77 1379.77 1229.88 1376.4 1182.03 1376.45L1116.79 1376.43L916.499 1376.43L639.475 1376.59L548.75 1376.63C513.953 1376.64 471.322 1382.8 446.742 1354.48C439.805 1346.48 432.775 1333 431.713 1322.49C430.483 1309.8 430.324 1300.05 434.353 1287.91C441.707 1266.39 466.326 1246.16 482.549 1229.98L539.367 1172.58C592.884 1118.34 648.886 1059.35 703.732 1006.67C687.561 1005.58 667.245 1006.14 650.617 1006.13L559.846 1006.09C532.884 1006.07 510.301 1007.9 484.105 1001.51C474.83 997.16 466.487 992.033 461.574 982.634C449.765 960.036 452.538 925.078 458.657 901.495ZM644.243 1242.25C660.739 1242.59 811.132 1243.53 814.585 1240.94C830.296 1226.65 845.516 1210.07 860.563 1194.97C923.154 1132.16 984.793 1068.64 1048.08 1006.52C998.064 1005.19 947.529 1006.8 897.47 1006.14C889.52 1006.03 881.286 1006.02 873.354 1006.25C867.318 1008.32 848.23 1030.5 842.449 1036.44C818.666 1060.62 795.064 1084.97 771.643 1109.5L684.445 1199.78C671.686 1213.12 656.095 1228.44 644.243 1242.25Z"/><path fill="url(#tg)" d="M1362.65 650.3C1396.23 639.004 1474.88 634.108 1488.88 672.509C1491.92 681.001 1494.37 688.154 1494.74 697.07C1495.63 718.785 1497.16 756.767 1475.15 771.906C1455.53 785.405 1416.65 784.214 1393.26 782.645C1329.89 778.392 1335.29 718.857 1340.02 679.158C1341.10 670.214 1349.55 658.094 1358.46 653.355C1360.83 652.091 1360.82 652.183 1362.65 650.3Z"/><path fill="url(#tg)" d="M1483.82 1350.33C1468.21 1381.25 1412.74 1378.28 1381.07 1373.47C1370.60 1371.88 1347.24 1360.1 1345.67 1351.74C1337.90 1310.68 1341.26 1265.25 1341.72 1223.54L1342.12 1107.1C1342.24 1077.45 1342.12 1047.8 1341.72 1018.15C1341.10 982.56 1337.61 934.783 1345.65 899.228C1349.67 890.227 1362.83 881.13 1372.67 878.643C1406.51 870.095 1468.58 866.305 1483.91 901.686C1490.60 915.181 1489.67 949.569 1490.09 965.402C1493.04 1078.58 1489.96 1191.83 1491.88 1305.04C1492.06 1315.01 1488.52 1342.45 1483.82 1350.33Z"/><path fill="url(#tg)" d="M2014.43 1289.09C2012.99 1290.79 2012.67 1292.38 2011.66 1294.28C1992.17 1330.76 1943.56 1354.45 1905.67 1367.39C1779.45 1410.47 1624.33 1336.45 1583.27 1208.31C1564.03 1148.26 1567.1 1064.42 1595.99 1008.43C1657.92 888.385 1815.29 831.558 1937.01 895.126C1960.6 907.455 2005.17 940.488 2013.7 966.793C2022.59 994.25 1981.44 1042.61 1955.51 1049.77C1934.08 1055.6 1902.25 1029.09 1883.03 1018.81C1821.52 985.903 1752.38 1007.06 1718.22 1067.66C1702.56 1106.27 1701.4 1142.55 1718.21 1181.34C1722.16 1188.06 1725.64 1195.54 1730.64 1201.64C1768.36 1247.7 1837.54 1257.76 1888.74 1229.22C1909.33 1217.75 1929.81 1191.52 1955.74 1198.13C1976.73 1203.47 2006.01 1237.45 2012.26 1256.79C2016.45 1267.78 2017.12 1277.54 2014.43 1289.09Z"/><path fill="url(#tg)" fill-rule="evenodd" d="M2590.49 1169.34C2586.63 1184.96 2583.85 1203.38 2577.43 1218.48C2548.83 1285.22 2504.09 1332.59 2437.33 1362.35C2280.22 1432.38 2090.78 1317.8 2078.78 1146.46C2076.14 1108.65 2080.79 1066.14 2095.05 1030.31C2121.67 964.455 2173.12 911.708 2238.3 883.458C2297.45 858.224 2372.3 857.752 2431.88 882.076C2492.55 906.882 2541.86 953.317 2570.25 1012.39C2574.44 1021.15 2577.7 1029.24 2580.45 1038.54C2581.86 1043.33 2583.21 1049.51 2585.23 1053.91C2593.87 1081.44 2597.14 1140.78 2590.49 1169.34ZM2345 1254 C2417 1251 2461 1228 2468 1151 C2477 1048 2447 986 2333 991 C2333 991 2333 991 2333 991 C2232 993 2204 1037 2206 1132 C2208 1227 2255 1255 2345 1254 Z"/></svg></svg>