<?xml version="1.0" encoding="utf-8" ?><svg xmlns="http://www.w3.org/2000/svg" xmlns:xlink="http://www.w3.org/1999/xlink" width="4096" height="1663" viewBox="0 0 4096 1663"><path fill="white" d="M814.468 341.411C819.751 340.464 840.953 340.893 846.91 341.199C903.455 343.94 958.317 361.335 1006.11 391.677C1078.89 438.162 1130.19 511.702 1148.66 596.064C1169.07 688.791 1148.84 770.915 1098.47 849.86C1138.61 887.295 1182.86 934.004 1222.36 973.402L1268.24 1019.03C1300.58 1051.19 1335.09 1077.54 1292.78 1121.34C1249.67 1165.98 1227.05 1143.35 1190.32 1106.05C1177.71 1093.26 1163.6 1079.18 1150.56 1066.13L1016.3 931.878C910.795 1002.96 793.539 1007.14 680.309 951.97C668.809 946.229 657.833 939.016 647.121 931.959C624.788 954.793 602.223 977.4 579.431 999.776C591.647 1011.75 628.753 1042.87 630.748 1060.78C632.542 1076.9 605.723 1102.63 587.455 1088.37C569.969 1074.71 554.322 1057.16 538.268 1040.93L522.968 1056.22C537.739 1071.12 569.949 1096.37 574.172 1116.8C576.732 1129.18 556.643 1150.07 544.506 1148.92C524.623 1147.05 495.557 1111.3 481.801 1097.38C448.973 1131.26 418.85 1170.51 374.172 1124.98C330.576 1080.55 354.676 1059.78 391.438 1022.97L432.105 982.305C475.936 937.711 520.192 893.535 564.866 849.785C532.497 800.51 512.919 750.236 508.282 691.121C501.402 605.023 529.176 519.74 585.438 454.206C645.513 384.213 723.299 348.3 814.468 341.411ZM847.246 820.74C939.601 814.036 980.822 784.154 986.87 687.393C994.89 559.089 947.43 504.088 816.819 509.411C777.286 511.968 734.704 518.371 706.905 549.828C681.042 579.313 676.423 621.175 675.77 658.865C674.982 704.271 679.984 757.84 716.662 789.49C750.649 818.818 804.178 822.282 847.246 820.74Z"/><path fill="white" d="M2026.38 696.381C2036.95 695.528 2054.62 695.986 2065.45 696.013L2132.5 696.149L2348.82 696.282L2581.74 696.1L2656.5 696.051C2671.46 696.068 2686.23 696.309 2701.18 696.698C2742.92 697.783 2765.82 736.213 2759.3 775.147C2755.72 796.583 2740.91 809.221 2726.41 824.385C2714.18 837.168 2701.28 849.928 2688.8 862.716L2567.62 987.423C2548.11 1007.46 2515.29 1039.19 2498.45 1060C2577.34 1061.88 2656.4 1057.15 2734.99 1062.35C2759 1063.93 2770.88 1088.73 2772.67 1109.85C2774.36 1129.77 2775.01 1159.39 2761.85 1176.08C2751.38 1189.36 2732.54 1190.66 2717.08 1191.83C2656.78 1192.86 2593.46 1191.91 2532.96 1191.92L2041.46 1192.51C2016.25 1192.77 1988.36 1192.07 1969.41 1173.09C1947.12 1150.79 1944.66 1113.51 1963.34 1088.29C1973.76 1074.23 1986.14 1063.11 1998.52 1050.87L2044.69 1004.57C2103.08 945.37 2159.84 885.971 2219.52 828.015C2174.39 825.326 2126.43 828.512 2080.98 827.425C2058.64 826.891 2040.05 828.397 2017.48 825.592C1971.12 819.831 1971.12 779.152 1974.88 741.28C1978.62 709.161 1995.65 698.922 2026.38 696.381ZM2160.99 1059.9C2180.78 1059.99 2316.59 1062.48 2329.07 1058.27C2356.41 1032.13 2384.04 1003.29 2410.7 976.278C2459.59 926.439 2508.86 876.979 2558.52 827.903C2520.3 826.868 2482.15 827.17 2443.93 827.622C2425.46 827.84 2405.34 826.838 2387.14 827.511C2379.33 830.946 2349.73 863.678 2341.77 871.888L2260.28 956.213L2199.6 1019C2186.98 1032.07 2172.75 1046.23 2160.99 1059.9Z"/><path fill="white" d="M3808.81 688.841C3949.61 678.856 4071.69 785.273 4081.01 926.123C4090.33 1066.97 3983.34 1188.55 3842.45 1197.21C3702.49 1205.8 3581.9 1099.68 3572.64 959.765C3563.38 819.85 3668.94 698.759 3808.81 688.841ZM3832.51 1071.37C3867.29 1069.9 3905.36 1065.39 3930.33 1038.35C3951.21 1015.67 3956.53 983.114 3957.61 953.348C3959.04 913.717 3955.41 867.841 3924.34 839.383C3899.59 816.724 3859.92 810.701 3827.35 812.389L3826.19 812.454C3723.61 816.378 3695.28 854.732 3698.49 955.918C3701.39 1047.34 3749.09 1070.39 3832.51 1071.37Z"/><path fill="white" d="M3317.59 692.442C3326.71 691.704 3340.64 692.527 3350.03 693.413C3406.96 698.657 3460.61 726.171 3497.91 769.498C3502.6 774.949 3509.17 785.796 3509.77 792.867C3512.82 821.248 3480.87 857.07 3457.04 868.417C3434.35 879.227 3400.89 850.983 3381.5 840.623C3366.06 832.376 3354.07 827.885 3336.63 825.686C3305.92 821.698 3274.91 830.359 3250.71 849.683C3223.16 871.531 3210.6 896.755 3206.95 931.378C3196.73 1028.26 3287.63 1087.74 3375.23 1052.46C3399.85 1042.55 3421.02 1013.05 3448.18 1015.75C3466.36 1017.56 3487.17 1041.11 3497.19 1054.88C3515.01 1080.69 3517.69 1104.03 3495.34 1127.8C3458.43 1166.93 3395.26 1191.98 3342.18 1194.68C3206.9 1201.55 3078.11 1101.39 3073.95 961.519C3071.85 890.76 3084.31 832.488 3133.11 778.88C3182.2 724.947 3245.49 696.46 3317.59 692.442Z"/><path fill="white" d="M807.613 1123.41C822.216 1122.44 836.864 1122.3 851.484 1123C973.633 1128.43 1102.04 1192.27 1191.8 1276.17C1219.03 1301.62 1196.88 1338.94 1173.81 1358.48C1149.12 1379.4 1126.4 1372.63 1103.23 1352.57C1032.67 1294.21 948.404 1246.85 855.5 1239.95C751.71 1232.11 653.887 1277.61 574.118 1341.5C551.085 1360.81 522.228 1386.18 492.729 1361.07C421.295 1300.27 478.663 1265.84 530.295 1228.72C615.997 1167.12 702.134 1131.41 807.613 1123.41Z"/><path fill="white" d="M1789.69 692.404C1809.98 689.174 1841.46 693.188 1858.05 706.1C1870.39 715.694 1872.79 726.156 1874.51 741.109C1878.02 771.504 1877.16 802.291 1877.14 832.833L1877.04 959.782L1877 1066.35C1877.03 1089.06 1877.83 1111.32 1875.85 1133.97C1872.27 1174.78 1853.94 1187.52 1815.28 1191.62C1793.99 1194.51 1763.45 1190.11 1746.3 1176.56C1734.73 1167.42 1731.34 1153.25 1729.93 1139.25C1727.46 1114.94 1728.05 1090.2 1728.05 1065.8L1728.07 957.462L1727.89 832.494C1727.83 806.788 1727.5 781.713 1728.73 756.019C1730.92 710.427 1743.88 697.059 1789.69 692.404Z"/><path fill="white" d="M2916.69 696.432C2937.47 695.477 2961.74 697.752 2978.19 711.983C2990.99 723.064 2992.41 740.654 2992.94 756.738C2995.68 839.408 2994.98 922.157 2994.91 1004.86L2995.04 1084C2995.47 1149.05 3003.38 1189.25 2924.49 1191.96C2922.32 1192 2920.16 1191.98 2918 1191.9C2892.58 1190.96 2870.2 1189.24 2851.92 1169.53C2843.93 1131.51 2846.91 1084.65 2847.53 1045.82C2847.86 1011.09 2848.01 976.355 2847.97 941.622C2848.16 909.555 2848.08 877.488 2847.73 845.422C2846.97 806.588 2843.98 766.268 2850.37 727.848C2854.88 700.744 2895.13 697.928 2916.69 696.432Z"/><path fill="white" d="M1792.5 463.436C1811.43 462.179 1843.36 464.854 1858.24 477.113C1871.98 488.435 1875.74 501.556 1877.59 518.894C1879.77 539.156 1880.1 580.055 1867.28 596.288C1855.5 611.208 1833.02 616.219 1815.25 618.025C1791.57 619.302 1764.9 617.7 1744.89 602.808C1732.36 593.48 1730.12 574.892 1728.44 560.088C1725.95 538.074 1724.91 500.474 1739.69 482.778C1751.96 468.092 1774.67 464.724 1792.5 463.436Z"/><path fill="white" d="M2915.2 469.432C2934.87 467.862 2967.56 471.656 2982.64 485.272C2994.24 496.171 2998.23 513.705 2998.61 528.975C3000.09 587.004 2987.35 606.157 2929.31 608.228C2908.25 608.398 2880.42 609.405 2863.63 595.5C2851.2 584.99 2844.76 568.266 2843.91 552.298C2840.46 488.108 2851.93 473.758 2915.2 469.432Z"/></svg>