<?xml version="1.0" encoding="utf-8" ?><svg xmlns="http://www.w3.org/2000/svg" xmlns:xlink="http://www.w3.org/1999/xlink" width="4096" height="1663" viewBox="0 0 4096 1663"><path fill="#1A1A2E" d="M814.468 341.411C819.75 340.464 840.953 340.893 846.91 341.199C903.455 343.94 958.317 361.335 1006.11 391.677C1078.89 438.162 1130.19 511.702 1148.66 596.063C1169.07 688.796 1148.84 770.911 1098.47 849.86C1138.27 886.963 1181.83 933.002 1221.04 972.078L1267.86 1018.64C1300.21 1050.83 1335.28 1077.4 1292.78 1121.34C1249.63 1165.97 1227.09 1143.37 1190.32 1106.05C1177.71 1093.26 1163.6 1079.18 1150.56 1066.13L1016.3 931.878C910.797 1002.96 793.538 1007.14 680.309 951.969C668.815 946.233 657.827 939.011 647.121 931.959C624.787 954.793 602.223 977.4 579.431 999.776C591.648 1011.75 628.752 1042.87 630.748 1060.78C632.544 1076.89 605.722 1102.63 587.456 1088.37C569.969 1074.72 554.322 1057.16 538.268 1040.93L522.967 1056.22C537.74 1071.12 569.948 1096.37 574.172 1116.8C576.732 1129.18 556.641 1150.07 544.504 1148.92C524.622 1147.05 495.557 1111.3 481.8 1097.38C465.253 1114.46 438.398 1146.4 412.981 1145.81C386.3 1144.73 351.095 1108.07 350.903 1081.96C350.744 1060.41 376.831 1037.6 391.517 1022.89L431.374 983.037C475.449 938.198 519.949 893.779 564.866 849.785C532.5 800.542 512.916 750.199 508.282 691.121C501.402 605.023 529.176 519.741 585.438 454.206C645.514 384.212 723.298 348.301 814.468 341.411ZM847.246 820.74C939.602 814.036 980.822 784.155 986.871 687.393C994.891 559.091 947.43 504.086 816.819 509.411C777.286 511.968 734.704 518.371 706.905 549.827C681.042 579.313 676.423 621.175 675.77 658.865C674.982 704.271 679.983 757.839 716.662 789.49C750.648 818.818 804.179 822.283 847.246 820.74Z"/><path fill="#1A1A2E" d="M2026.39 696.381C2036.95 695.528 2054.63 695.986 2065.45 696.013L2132.5 696.149L2348.82 696.282L2581.74 696.1L2656.5 696.051C2671.46 696.068 2686.23 696.309 2701.18 696.698C2742.92 697.783 2765.82 736.213 2759.3 775.147C2755.72 796.584 2740.91 809.221 2726.41 824.385C2714.18 837.168 2701.28 849.928 2688.8 862.716L2567.62 987.423C2548.11 1007.46 2515.29 1039.19 2498.45 1060C2577.34 1061.89 2656.4 1057.15 2734.99 1062.35C2759 1063.93 2770.88 1088.73 2772.67 1109.85C2774.36 1129.77 2775.01 1159.39 2761.85 1176.08C2751.38 1189.36 2732.54 1190.66 2717.08 1191.83C2656.91 1192.85 2593.74 1191.91 2533.37 1191.92L2041.46 1192.51C2016.26 1192.77 1988.36 1192.07 1969.41 1173.09C1947.12 1150.79 1944.66 1113.51 1963.35 1088.29C1973.76 1074.23 1986.13 1063.11 1998.52 1050.87L2044.69 1004.57C2103.08 945.369 2159.84 885.97 2219.52 828.015C2174.36 825.324 2126.35 828.516 2080.87 827.425C2058.57 826.89 2040.01 828.393 2017.48 825.592C1971.12 819.829 1971.12 779.154 1974.88 741.28C1978.62 709.157 1995.66 698.921 2026.39 696.381ZM2160.99 1059.9C2180.77 1059.99 2316.59 1062.48 2329.07 1058.27C2356.41 1032.13 2384.04 1003.29 2410.7 976.278C2459.59 926.438 2508.86 876.978 2558.52 827.903C2520.3 826.868 2482.15 827.17 2443.93 827.622C2425.46 827.84 2405.34 826.838 2387.14 827.51C2379.33 830.947 2349.73 863.677 2341.77 871.888L2260.28 956.213L2199.6 1019C2186.98 1032.06 2172.74 1046.23 2160.99 1059.9Z"/><path fill="#1A1A2E" d="M3808.81 688.841C3949.61 678.857 4071.69 785.273 4081.01 926.123C4090.33 1066.97 3983.34 1188.55 3842.45 1197.21C3702.49 1205.8 3581.9 1099.68 3572.64 959.765C3563.38 819.85 3668.94 698.76 3808.81 688.841ZM3832.52 1071.37C3867.29 1069.9 3905.36 1065.39 3930.33 1038.35C3951.21 1015.67 3956.53 983.114 3957.61 953.348C3959.04 913.717 3955.41 867.841 3924.34 839.383C3899.59 816.724 3859.92 810.7 3827.35 812.389L3826.19 812.454C3723.61 816.377 3695.28 854.732 3698.49 955.918C3701.39 1047.35 3749.09 1070.39 3832.52 1071.37Z"/><path fill="#1A1A2E" d="M3317.59 692.442C3383.52 687.111 3456.57 720.284 3498.46 770.167C3526.51 803.571 3496.24 837.87 3470.38 860.381C3440.06 886.769 3408.27 855.238 3381.06 840.322C3367.26 832.645 3352.14 827.646 3336.48 825.586C3305.81 821.752 3274.89 830.435 3250.7 849.674C3223.22 871.459 3210.81 896.313 3207.06 930.79C3196.6 1026.79 3284.63 1086.28 3372.45 1053.64C3398.87 1043.82 3419.89 1013.43 3448.16 1015.76C3466.01 1017.23 3487.37 1041.39 3497.19 1054.88C3515.01 1080.69 3517.69 1104.03 3495.34 1127.8C3458.43 1166.93 3395.26 1191.98 3342.18 1194.68C3206.9 1201.55 3078.11 1101.39 3073.95 961.519C3071.85 890.76 3084.31 832.488 3133.11 778.88C3182.2 724.947 3245.49 696.46 3317.59 692.442Z"/><path fill="#1A1A2E" d="M807.613 1123.41C822.216 1122.44 836.864 1122.3 851.484 1123C973.632 1128.43 1102.04 1192.27 1191.8 1276.17C1219.03 1301.62 1196.88 1338.94 1173.81 1358.48C1149.12 1379.4 1126.4 1372.63 1103.23 1352.57C1032.67 1294.21 948.403 1246.85 855.5 1239.95C758.146 1231.52 664.237 1273.79 587.9 1330.62C569.284 1343.91 547.55 1368.03 524.145 1371.22C495.205 1375.16 461.696 1335.27 459.248 1308.66C458.223 1297.51 464.613 1283.62 472.174 1275.69C489.066 1257.99 510.501 1243.54 530.067 1228.89C616.02 1167.34 701.812 1131.44 807.613 1123.41Z"/><path fill="#1A1A2E" d="M1789.69 692.404C1809.99 689.172 1841.45 693.19 1858.06 706.1C1870.55 715.811 1872.86 726.506 1874.58 741.61C1878.02 771.986 1877.16 802.757 1877.14 833.276L1877.04 959.942L1877 1066.35C1877.03 1089.06 1877.83 1111.32 1875.85 1133.97C1872.27 1174.78 1853.94 1187.52 1815.28 1191.62C1794 1194.51 1763.45 1190.1 1746.3 1176.56C1734.73 1167.42 1731.34 1153.25 1729.93 1139.25C1727.46 1114.88 1728.05 1090.09 1728.05 1065.63L1728.07 957.757L1727.89 833.058C1727.83 807.162 1727.49 781.901 1728.73 756.019C1730.92 710.42 1743.88 697.059 1789.69 692.404Z"/><path fill="#1A1A2E" d="M2916.69 696.432C2937.46 695.477 2961.74 697.754 2978.19 711.982C2990.99 723.059 2992.41 740.661 2992.94 756.738C2995.68 839.408 2994.98 922.157 2994.91 1004.86L2995.04 1084C2995.47 1149.05 3003.38 1189.25 2924.49 1191.96C2922.32 1192 2920.16 1191.98 2918 1191.9C2892.58 1190.96 2870.2 1189.24 2851.92 1169.53C2843.94 1131.53 2846.91 1084.8 2847.53 1045.99C2847.86 1011.3 2848.01 976.604 2847.97 941.912C2848.16 909.754 2848.08 877.595 2847.73 845.438C2846.97 806.599 2843.98 766.272 2850.37 727.848C2854.88 700.745 2895.13 697.928 2916.69 696.432Z"/><path fill="#1A1A2E" d="M1792.49 463.436C1811.42 462.179 1843.36 464.854 1858.24 477.113C1871.98 488.434 1875.74 501.556 1877.59 518.894C1879.77 539.154 1880.1 580.057 1867.28 596.287C1855.5 611.207 1833.02 616.219 1815.25 618.025C1791.57 619.3 1764.91 617.702 1744.89 602.808C1732.36 593.48 1730.12 574.893 1728.44 560.088C1725.95 538.071 1724.91 500.48 1739.69 482.778C1751.96 468.094 1774.67 464.725 1792.49 463.436Z"/><path fill="#1A1A2E" d="M2915.2 469.432C2934.87 467.863 2967.56 471.655 2982.64 485.272C2994.24 496.171 2998.23 513.704 2998.61 528.975C3000.09 586.991 2987.36 606.156 2929.32 608.228C2908.26 608.399 2880.42 609.407 2863.63 595.5C2851.2 584.99 2844.76 568.265 2843.91 552.298C2840.46 488.109 2851.93 473.759 2915.2 469.432Z"/></svg>