<?xml version="1.0" encoding="UTF-8"?><svg xmlns="http://www.w3.org/2000/svg" width="2048" height="2048" viewBox="0 0 2048 2048"><defs><linearGradient id="export-gradient" gradientUnits="userSpaceOnUse" x1="400" y1="420" x2="1600" y2="1680"><stop offset="0%" stop-color="#9c5698"/><stop offset="20%" stop-color="#9c5698"/><stop offset="35%" stop-color="#d15659"/><stop offset="50%" stop-color="#e05747"/><stop offset="70%" stop-color="#ff7c10"/><stop offset="100%" stop-color="#ffc800"/></linearGradient></defs><path fill="url(#export-gradient)" d="M1002.64 420.432C1010.39 419.464 1031.72 419.81 1039.84 420.124C1110.9 422.944 1179.92 444.646 1239.81 482.998C1330.42 541.324 1393.7 633.707 1415.36 739.271C1438.27 849.509 1413.57 953.495 1352.49 1046.55C1370.25 1063.1 1389.73 1083.49 1407.07 1100.83L1507.6 1201.34L1564.47 1258.17C1604.84 1298.5 1642.91 1328.61 1590.86 1381.84C1537.34 1436.58 1509.71 1406.42 1467.21 1363.84L1417.39 1313.89L1251.26 1147.66C1219.48 1169.64 1184.69 1186.91 1147.96 1198.94C1042.02 1233.64 935.318 1221.88 836.704 1171.94C821.784 1164.15 810.53 1157.08 796.737 1147.66C770.286 1175.27 740.585 1203.95 713.394 1231.15C728.309 1245.96 743.575 1260.91 758.382 1275.96C775.604 1293.46 786.486 1307 767.674 1328.59C745.931 1353.54 729.649 1350.33 708.017 1327.47C693.472 1312.74 677.482 1296.85 662.638 1281.91L643.882 1300.66L678.595 1335.2C697.808 1354.35 721.856 1372.39 697.56 1398.79C674.288 1424.09 660.317 1419.04 637.773 1396.26C623.053 1381.39 607.823 1366.21 593.126 1351.42C549.144 1395.59 515.779 1442.89 457.763 1382.59C406.724 1329.54 439.922 1301.85 480.759 1260.97L533.549 1208.15C586.707 1154.98 641.516 1098.55 695.508 1046.55C654.879 985.546 630.238 920.141 625.436 846.497C618.223 740.64 653.441 636.266 723.313 556.418C796.096 473.492 893.019 427.434 1002.64 420.432ZM1034 1011C1140 1008 1204 974 1214 861C1227 711 1183 621 1018 627C1017 627 1016 627 1015 627C870 631 829 695 832 833C835 972 904 1013 1034 1011Z"/><path fill="url(#export-gradient)" d="M1014.97 1382.45C1017.89 1382.41 1020.81 1382.39 1023.73 1382.38C1185.12 1382.2 1341.07 1459.59 1461.33 1565.49C1500.83 1600.28 1479.91 1639.72 1448.28 1670.17C1418.31 1699.01 1389.64 1692 1360.07 1667.11C1267.23 1590.35 1157.96 1529.51 1034.65 1525.94C938.955 1524.3 855.652 1553.88 774.819 1604.11C756.708 1615.43 739.051 1627.47 721.892 1640.19C683.945 1668.14 647.874 1715.12 600.798 1671.14C557.774 1630.94 549.656 1591.89 600.28 1553.31C618.434 1539.48 636.896 1523.78 656.088 1510.91C764.881 1433.54 880.77 1386.83 1014.97 1382.45Z"/></svg>