<?xml version="1.0" encoding="utf-8" ?><svg xmlns="http://www.w3.org/2000/svg" xmlns:xlink="http://www.w3.org/1999/xlink" width="501" height="243" viewBox="0 0 501 243"><path d="M175.183 77.1843C178.661 77.4064 184.218 77.244 187.888 77.2445L212.014 77.2482C211.973 80.2019 211.996 83.1562 212.086 86.1088C214.522 86.3536 219.103 86.1829 221.831 86.2497C221.687 83.544 221.791 80.0504 221.746 77.2443C227.685 77.2604 233.868 77.353 239.787 77.2391L239.754 206.773C237.354 206.632 222.836 207.086 221.872 206.442C221.505 191.347 221.928 175.923 221.715 160.778C218.464 160.805 215.323 160.693 211.989 160.755C211.98 163.806 211.943 166.52 211.764 169.563L189.917 169.575C185.783 169.563 179.252 169.371 175.257 169.717C175.239 166.825 175.165 163.753 175.306 160.877C172.184 160.707 169.283 160.673 166.156 160.655L166.007 151.061C163.081 150.996 159.742 151 156.861 150.708C156.82 132.831 156.423 113.931 156.925 96.1501C159.371 95.945 163.45 96.0174 166.018 95.9868C165.931 92.7056 165.948 89.4225 166.068 86.1424C168.926 86.2743 172.31 86.1967 175.207 86.1902C175.223 83.1882 175.215 80.1861 175.183 77.1843ZM183.674 104.238C180.715 104.233 177.665 104.269 174.714 104.169C175.058 116.513 174.574 129.674 174.762 142.164C177.76 142.237 180.759 142.26 183.758 142.232C183.733 145.411 183.739 148.591 183.774 151.77L203.43 151.748C204.784 151.75 211.083 151.853 212.132 151.676C212.29 151.164 212.298 151.096 212.246 150.562C212.237 147.881 212.299 144.78 212.199 142.132C215.388 142.303 218.726 142.249 221.932 142.247C221.562 139.199 221.749 132.469 221.752 129.08L221.741 104.241L212.285 104.192C212.162 101.233 212.107 98.2727 212.122 95.3119C209.876 95.4045 207.452 95.3363 205.197 95.2752C198.102 95.0829 190.773 95.5277 183.703 95.2113C183.848 98.1581 183.731 101.277 183.674 104.238Z"/><path d="M361.804 76.1912L362.017 76.2664C362.472 77.052 362.175 100.973 362.231 103.598C359.146 103.507 356.058 103.529 352.974 103.663C352.905 111.568 352.893 119.472 352.938 127.376C352.944 131.448 353.076 136.609 352.782 140.598C349.828 140.494 346.78 140.812 343.764 140.679L343.697 168.742C341.066 168.597 337.144 168.716 334.403 168.719L316.547 168.75C316.435 162.904 316.581 156.859 316.512 150.991C316.488 148.937 316.394 142.632 316.658 140.91C313.528 140.7 310.39 140.644 307.254 140.741C307.113 129.45 306.875 115.064 307.271 103.789C304.333 103.629 300.033 103.861 297.489 103.554C297.576 115.892 297.28 128.461 297.507 140.77C294.325 140.645 290.921 140.756 287.717 140.807C288.134 149.533 287.419 159.796 287.678 168.706C278.557 168.791 269.332 168.609 260.229 168.8L260.207 150.921C260.204 147.841 260.092 143.866 260.276 140.845C257.272 140.713 254.264 140.682 251.258 140.753C251.134 131.947 251.096 123.14 251.142 114.334C251.163 111.453 250.985 106.442 251.258 103.779L244.99 103.556L241.771 103.545L241.829 76.2691C247.863 76.1964 253.898 76.1901 259.932 76.2502C260.261 85.1443 259.751 94.8569 260.01 103.984C262.239 104.066 266.516 103.776 268.444 104.293C269.512 105.629 268.92 136.299 269.057 141.227C273.678 141.392 278.865 141.204 283.592 141.281C283.286 137.886 283.449 131.606 283.452 127.998L283.512 104.038C286.765 104.085 290.018 104.058 293.269 103.958C293.027 94.8322 293.277 85.2918 293.218 76.1117C297.043 76.4288 307.5 76.2513 311.53 76.1627C311.278 84.9942 311.435 95.0849 311.496 103.963C314.493 104.066 317.711 104.028 320.727 104.04C320.644 116.439 320.654 128.839 320.757 141.238C325.446 141.322 330.261 141.28 334.962 141.316C335.206 137.032 334.609 105.467 335.58 104.326C337.167 103.945 342.284 103.995 344.255 103.964C344.071 94.7642 344.267 85.3339 344.207 76.0997C349.131 76.4258 356.68 76.202 361.804 76.1912ZM343.027 167.655C343.079 165.074 343.335 147.117 342.764 145.896C342.608 146.348 342.442 147.073 342.493 147.521C342.803 150.213 341.711 166.671 343.027 167.655Z"/><path d="M342.764 145.896C343.335 147.117 343.079 165.074 343.027 167.655C341.711 166.671 342.803 150.213 342.493 147.521C342.442 147.073 342.608 146.348 342.764 145.896Z"/><path d="M90.1794 76.1997C94.7712 76.4484 100.991 76.2456 105.782 76.2448L135.987 76.2692C135.96 79.2053 135.987 82.1417 136.069 85.0768C138.917 85.3303 142.354 85.2227 145.253 85.2065C145.241 88.4587 145.259 91.7108 145.308 94.9626L154.751 95.0054C154.809 97.8897 154.599 100.931 154.88 103.795C147.192 103.505 134.925 103.455 127.262 103.763L127.187 94.2949C116.756 94.5085 105.229 94.2433 94.696 94.247C95.0458 98.753 94.7183 108.174 94.7621 113.214C105.429 113.266 116.096 113.265 126.763 113.209C126.593 116.113 126.717 119.994 126.737 122.974C132.872 123.21 139.562 123.119 145.7 123.034L145.742 132.27C148.779 132.275 151.816 132.256 154.853 132.214C154.465 135.975 154.73 145.889 154.746 150.061C151.908 149.905 148.609 149.958 145.767 150.012C145.77 153.243 145.616 156.481 145.686 159.72C142.65 159.655 139.538 159.886 136.49 159.71L136.413 168.667C135.538 168.592 134.516 168.595 133.625 168.578C121.943 168.826 110.208 168.526 98.5218 168.583C95.7543 168.597 93.0306 168.517 90.2633 168.684C90.2311 165.877 90.1119 162.586 90.276 159.818C87.1547 159.704 84.0319 159.632 80.9086 159.603C80.6919 156.766 80.7554 152.913 80.7333 150.025C77.5856 149.994 74.4382 149.945 71.2911 149.877C71.2525 146.958 71.229 144.039 71.2204 141.119C74.6983 141.355 79.3047 141.233 82.8556 141.231C88.0822 141.226 93.5635 141.311 98.7722 141.17C98.7279 144.369 98.7273 147.567 98.7706 150.765C108.76 150.53 122.321 150.513 132.261 150.764C132.158 146.611 131.98 135.817 132.284 131.834C122.872 131.419 108.822 131.543 99.2565 131.771L99.2332 122.05C95.9345 121.94 83.3161 122.298 81.3006 121.533C80.4851 120.171 80.9233 114.782 80.9097 112.765C77.7778 112.703 74.5441 112.675 71.4397 113.088C70.9618 109.202 71.2445 99.228 71.2582 95.014C74.3987 95.1039 77.7882 95.0196 80.9503 94.9923C80.6833 91.9465 80.8208 88.3758 80.8589 85.2839C83.9167 85.2007 87.145 85.2438 90.2177 85.2406C90.2327 82.2269 90.22 79.2132 90.1794 76.1997Z"/><path d="M392.154 76.189C398.764 76.5202 408.148 76.2473 414.996 76.2502C414.995 80.2534 415.22 90.7366 414.666 94.2671C407.06 94.1652 399.321 94.4216 391.722 94.2415C391.909 97.0738 391.759 100.409 391.701 103.281L382.715 103.207C382.936 105.425 382.806 109.628 382.801 111.968L382.761 127.828L382.706 168.752C377.97 168.45 369.826 168.729 364.836 168.74C364.756 164.585 364.693 160.368 364.743 156.212C365.064 129.634 364.194 102.759 364.852 76.2096C370.435 76.4068 377.114 76.2662 382.78 76.2426L382.847 85.0058C385.397 85.2039 389.517 85.063 392.195 85.0415C392.214 82.0906 392.201 79.1396 392.154 76.189ZM381.997 167.598C382.105 166.681 382.4 165.393 381.745 164.647C381.531 165.531 381.182 166.919 381.997 167.598Z"/><defs><linearGradient id="gradient_0" gradientUnits="userSpaceOnUse" x1="381.48178" y1="166.1321" x2="382.04233" y2="166.10432"><stop offset="0" stop-color="black" stop-opacity="0.96470588"/><stop offset="1" stop-color="black"/></linearGradient></defs><path fill="url(#gradient_0)" d="M381.745 164.647C382.4 165.393 382.105 166.681 381.997 167.598C381.182 166.919 381.531 165.531 381.745 164.647Z"/><path d="M398.097 150.2C404.091 150.236 410.085 150.238 416.079 150.206C416.016 156.361 416.162 162.549 416.027 168.701C410.04 168.755 404.053 168.767 398.066 168.737C398.008 162.755 397.927 156.15 398.097 150.2Z"/><path d="M305.286 126.15L305.562 126.405C305.844 127.796 305.913 129.987 305.636 131.382C304.63 129.639 306.005 127.617 305.286 126.15Z"/></svg>