<svg width="400" height="200" viewBox="0 0 400 200" fill="none" xmlns="http://www.w3.org/2000/svg">
  <!-- S -->
  <rect x="20" y="40" width="20" height="20" fill="currentColor"/>
  <rect x="40" y="40" width="20" height="20" fill="currentColor"/>
  <rect x="60" y="40" width="20" height="20" fill="currentColor"/>
  <rect x="80" y="40" width="20" height="20" fill="currentColor"/>
  <rect x="20" y="60" width="20" height="20" fill="currentColor"/>
  <rect x="20" y="80" width="20" height="20" fill="currentColor"/>
  <rect x="40" y="80" width="20" height="20" fill="currentColor"/>
  <rect x="60" y="80" width="20" height="20" fill="currentColor"/>
  <rect x="80" y="80" width="20" height="20" fill="currentColor"/>
  <rect x="80" y="100" width="20" height="20" fill="currentColor"/>
  <rect x="80" y="120" width="20" height="20" fill="currentColor"/>
  <rect x="20" y="140" width="20" height="20" fill="currentColor"/>
  <rect x="40" y="140" width="20" height="20" fill="currentColor"/>
  <rect x="60" y="140" width="20" height="20" fill="currentColor"/>
  <rect x="80" y="140" width="20" height="20" fill="currentColor"/>

  <!-- Q -->
  <rect x="110" y="40" width="20" height="20" fill="currentColor"/>
  <rect x="130" y="40" width="20" height="20" fill="currentColor"/>
  <rect x="150" y="40" width="20" height="20" fill="currentColor"/>
  <rect x="170" y="40" width="20" height="20" fill="currentColor"/>
  <rect x="110" y="60" width="20" height="20" fill="currentColor"/>
  <rect x="170" y="60" width="20" height="20" fill="currentColor"/>
  <rect x="110" y="80" width="20" height="20" fill="currentColor"/>
  <rect x="170" y="80" width="20" height="20" fill="currentColor"/>
  <rect x="110" y="100" width="20" height="20" fill="currentColor"/>
  <rect x="150" y="100" width="20" height="20" fill="currentColor"/>
  <rect x="170" y="100" width="20" height="20" fill="currentColor"/>
  <rect x="110" y="120" width="20" height="20" fill="currentColor"/>
  <rect x="170" y="120" width="20" height="20" fill="currentColor"/>
  <rect x="110" y="140" width="20" height="20" fill="currentColor"/>
  <rect x="130" y="140" width="20" height="20" fill="currentColor"/>
  <rect x="150" y="140" width="20" height="20" fill="currentColor"/>
  <rect x="170" y="140" width="20" height="20" fill="currentColor"/>
  <rect x="190" y="160" width="20" height="20" fill="currentColor"/>

  <!-- W -->
  <rect x="200" y="40" width="20" height="20" fill="currentColor"/>
  <rect x="280" y="40" width="20" height="20" fill="currentColor"/>
  <rect x="200" y="60" width="20" height="20" fill="currentColor"/>
  <rect x="280" y="60" width="20" height="20" fill="currentColor"/>
  <rect x="200" y="80" width="20" height="20" fill="currentColor"/>
  <rect x="280" y="80" width="20" height="20" fill="currentColor"/>
  <rect x="200" y="100" width="20" height="20" fill="currentColor"/>
  <rect x="240" y="100" width="20" height="20" fill="currentColor"/>
  <rect x="280" y="100" width="20" height="20" fill="currentColor"/>
  <rect x="200" y="120" width="20" height="20" fill="currentColor"/>
  <rect x="220" y="120" width="20" height="20" fill="currentColor"/>
  <rect x="260" y="120" width="20" height="20" fill="currentColor"/>
  <rect x="280" y="120" width="20" height="20" fill="currentColor"/>
  <rect x="200" y="140" width="20" height="20" fill="currentColor"/>
  <rect x="220" y="140" width="20" height="20" fill="currentColor"/>
  <rect x="260" y="140" width="20" height="20" fill="currentColor"/>
  <rect x="280" y="140" width="20" height="20" fill="currentColor"/>

  <!-- R -->
  <rect x="310" y="40" width="20" height="20" fill="currentColor"/>
  <rect x="330" y="40" width="20" height="20" fill="currentColor"/>
  <rect x="350" y="40" width="20" height="20" fill="currentColor"/>
  <rect x="370" y="40" width="20" height="20" fill="currentColor"/>
  <rect x="310" y="60" width="20" height="20" fill="currentColor"/>
  <rect x="370" y="60" width="20" height="20" fill="currentColor"/>
  <rect x="310" y="80" width="20" height="20" fill="currentColor"/>
  <rect x="330" y="80" width="20" height="20" fill="currentColor"/>
  <rect x="350" y="80" width="20" height="20" fill="currentColor"/>
  <rect x="370" y="80" width="20" height="20" fill="currentColor"/>
  <rect x="310" y="100" width="20" height="20" fill="currentColor"/>
  <rect x="350" y="100" width="20" height="20" fill="currentColor"/>
  <rect x="310" y="120" width="20" height="20" fill="currentColor"/>
  <rect x="370" y="120" width="20" height="20" fill="currentColor"/>
  <rect x="310" y="140" width="20" height="20" fill="currentColor"/>
  <rect x="380" y="140" width="20" height="20" fill="currentColor"/>

  <!-- Dot after R -->
  <rect x="390" y="140" width="20" height="20" fill="currentColor"/>
</svg>
